<svg aria-hidden="true" style="width:0;height:0;position:absolute;overflow:hidden" xmlns="http://www.w3.org/2000/svg"><defs><symbol id="icon-telegram" viewBox="0 0 32 32"><path d="m12.613 19.671-.491 6.444c.702 0 1.006-.282 1.371-.62l3.293-2.937 6.822 4.663c1.251.651 2.133.308 2.47-1.074l4.478-19.585.001-.001c.397-1.726-.669-2.401-1.888-1.978L2.346 13.989c-1.796.651-1.769 1.585-.305 2.009l6.73 1.954 15.632-9.129c.736-.455 1.404-.203.854.252L12.612 19.672z"/></symbol><symbol id="icon-home" viewBox="0 0 32 32"><path d="M31.618 15.643c.553-.608.5-1.541-.119-2.082L17.863 1.63c-.619-.541-1.611-.53-2.217.026L1.964 14.198a1.446 1.446 0 0 0-.066 2.079l.343.357c.569.592 1.489.663 2.053.157l1.023-.916v13.406c0 .823.666 1.488 1.488 1.488h5.333c.822 0 1.488-.666 1.488-1.488v-9.379h6.803v9.379c-.012.822.576 1.488 1.398 1.488h5.652c.822 0 1.488-.666 1.488-1.488V16.064l.631.554c.349.307 1.078.061 1.631-.548l.388-.426z"/></symbol><symbol id="icon-git" viewBox="0 0 32 32"><path d="M16 0C7.212 0 0 7.212 0 16c0 7.499 5.262 14.312 12.25 16v-5.293c-.692.152-1.33.156-2.034-.052-.946-.279-1.714-.909-2.284-1.869-.364-.613-1.008-1.278-1.68-1.23l-.165-1.868c1.453-.124 2.711.886 3.457 2.14.332.558.713.884 1.203 1.029.473.14.982.072 1.574-.137.149-1.186.692-1.63 1.102-2.255v-.001c-4.167-.622-5.828-2.832-6.488-4.578-.874-2.317-.405-5.212 1.14-7.041.03-.036.084-.129.063-.194-.708-2.139.155-3.909.187-4.097.817.242.95-.243 3.551 1.337l.449.27c.188.112.129.048.317.034A13.544 13.544 0 0 1 16 7.723c1.136.015 2.273.178 3.404.484l.145.015c-.013-.002.04-.009.127-.062 3.248-1.968 3.132-1.324 4.003-1.608.032.188.883 1.987.182 4.099-.095.291 2.816 2.956 1.203 7.235-.659 1.746-2.32 3.957-6.487 4.578v.001c.534.814 1.176 1.247 1.173 2.927V32C26.738 30.312 32 23.499 32 16c0-8.788-7.212-16-16-16z"/></symbol><symbol id="icon-facebook" viewBox="0 0 32 32"><path d="M22.143 15.972h-4.034v14.865h-6.112V15.972H9.09v-5.224h2.907V7.367c0-2.418 1.142-6.203 6.166-6.203l4.527.019v5.071h-3.285c-.539 0-1.296.271-1.296 1.424v3.075h4.567l-.534 5.219z"/></symbol><symbol id="quotes" viewBox="0 0 54 40"><path d="M40.018 0c2.41 0 4.687.65 6.83 1.951 2.143 1.301 3.884 3.171 5.223 5.61C53.357 10 54 12.873 54 16.179s-.804 6.531-2.41 9.675c-.536 1.138-1.5 2.601-2.894 4.39-1.446 1.788-2.785 3.333-4.017 4.634L39.616 40 36 33.984a27.548 27.548 0 0 0 6.67-5.854c1.928-2.276 2.892-4.363 2.892-6.26 0-.976-.214-1.762-.642-2.358-1.875 1.355-3.965 2.033-6.268 2.033-1.66 0-3.241-.515-4.741-1.545a10.708 10.708 0 0 1-3.697-3.902c-.964-1.572-1.446-3.198-1.446-4.878 0-1.898.562-3.713 1.687-5.448a12.784 12.784 0 0 1 4.26-4.227C36.428.515 38.195 0 40.017 0ZM11.17 0c2.41 0 4.687.65 6.83 1.951 2.143 1.301 3.884 3.17 5.223 5.61 1.286 2.439 1.929 5.312 1.929 8.618 0 2.33-.295 4.417-.884 6.26-.59 1.897-1.607 3.875-3.054 5.935-1.393 1.951-2.705 3.577-3.937 4.878-1.232 1.355-3.375 3.604-6.429 6.748l-3.616-6.016a27.551 27.551 0 0 0 6.67-5.854c1.928-2.276 2.893-4.363 2.893-6.26 0-.976-.215-1.762-.643-2.358-1.875 1.355-3.965 2.033-6.268 2.033-1.66 0-3.241-.515-4.741-1.545a10.708 10.708 0 0 1-3.697-3.902C.482 14.526 0 12.9 0 11.22c0-1.898.536-3.713 1.607-5.448a12.784 12.784 0 0 1 4.26-4.227C7.58.515 9.347 0 11.17 0Z"/></symbol><symbol id="circles" viewBox="0 0 32 4" fill="none" xmlns="http://www.w3.org/2000/svg"><circle cx="16" cy="2" r="2" fill="#C7133E"/><circle cx="2" cy="2" r="2" fill="#C7133E"/><circle cx="30" cy="2" r="2" fill="#C7133E"/><symbol id="icon-arrow" viewBox="0 0 19 32"><path stroke="#d41443" style="stroke:var(--color1,#d41443);fill:none" stroke-linejoin="round" stroke-linecap="round" stroke-width="6.4" d="M3.2 3.2 16 16 3.2 28.8"/></symbol><symbol id="icon-Vector-1" viewBox="0 0 26 32"><path stroke="#fff" style="stroke:var(--color1,#fff)" stroke-linejoin="round" stroke-linecap="round" stroke-width="6.4" d="M5.172 3.2 19.341 16 5.172 28.8"/></symbol><symbol id="icon-close-about" viewBox="0 0 32 32"><path d="M32 3.223 28.777 0 16 12.777 3.223 0 0 3.223 12.777 16 0 28.777 3.223 32 16 19.223 28.777 32 32 28.777 19.223 16 32 3.223z"/></symbol><symbol id="icon-about" viewBox="0 0 26 32"><path stroke="#d41443" style="stroke:var(--color2,#d41443)" stroke-linejoin="round" stroke-linecap="round" stroke-width="6.4" d="M5.172 3.2 19.341 16 5.172 28.8"/></symbol><symbol id="icon-arrow-right" viewBox="0 0 32 32"><path d="m19.414 27.414 10-10a2 2 0 0 0 0-2.828l-10-10a2 2 0 1 0-2.828 2.828L23.172 14H4a2 2 0 1 0 0 4h19.172l-6.586 6.586c-.39.39-.586.902-.586 1.414s.195 1.024.586 1.414a2 2 0 0 0 2.828 0z"/></symbol><symbol id="mobile-close" viewBox="0 0 32 32"><path d="M23.733 10.304 22.229 8.8l-5.963 5.963L10.303 8.8l-1.504 1.504 5.963 5.963-5.963 5.963 1.504 1.504 5.963-5.963 5.963 5.963 1.504-1.504-5.963-5.963 5.963-5.963z"/></symbol><symbol id="icon-menu" viewBox="0 0 32 32"><path d="M6.4 11.733V9.6h19.2v2.133H6.4zm0 5.334h19.2v-2.133H6.4v2.133zm0 5.333h19.2v-2.133H6.4V22.4z"/></symbol></symbol></defs></svg>